<svg width="170" height="90" viewBox="0 0 170 90" fill="none" xmlns="http://www.w3.org/2000/svg">
<path opacity="0.33" d="M50 8C50 9.10457 50.8954 10 52 10H68C69.1046 10 70 10.8954 70 12V18C70 19.1046 70.8954 20 72 20H98C99.1046 20 100 19.1046 100 18V12C100 10.8954 100.895 10 102 10H118C119.105 10 120 9.10457 120 8V2C120 0.89543 120.895 0 122 0H148C149.105 0 150 0.895431 150 2V8C150 9.10457 150.895 10 152 10H158C159.105 10 160 10.8954 160 12V18C160 19.1046 160.895 20 162 20H168C169.105 20 170 20.8954 170 22V38C170 39.1046 169.105 40 168 40H162C160.895 40 160 40.8954 160 42V48C160 49.1046 159.105 50 158 50H152C150.895 50 150 50.8954 150 52V58C150 59.1046 149.105 60 148 60H122C120.895 60 120 60.8954 120 62V78C120 79.1046 119.105 80 118 80H102C100.895 80 100 80.8954 100 82V88C100 89.1046 99.1046 90 98 90H72C70.8954 90 70 89.1046 70 88V82C70 80.8954 69.1046 80 68 80H52C50.8954 80 50 79.1046 50 78V62C50 60.8954 49.1046 60 48 60H22C20.8954 60 20 59.1046 20 58V52C20 50.8954 19.1046 50 18 50H12C10.8954 50 10 49.1046 10 48V42C10 40.8954 9.10457 40 8 40H2C0.89543 40 0 39.1046 0 38V22C0 20.8954 0.895431 20 2 20H8C9.10457 20 10 19.1046 10 18V12C10 10.8954 10.8954 10 12 10H18C19.1046 10 20 9.10457 20 8V2C20 0.89543 20.8954 0 22 0H48C49.1046 0 50 0.895431 50 2V8Z" fill="black"/>
</svg>
